#N canvas 683 32 683 718 12;
#X msg 133 463 connect 192.168.178.56 10000;
#X obj 133 430 loadbang;
#X obj 17 496 netsend -u -b;
#X obj 480 56 netreceive -u -b 10001;
#X obj 480 123 o.display 179 413;
#N canvas 654 23 373 463 bundle2bytes 0;
#X obj 66 41 inlet;
#X obj 106 391 outlet;
#X obj 66 201 dev/o.downcast;
#X obj 66 168 o.pack /b;
#X obj 66 235 o.route /b;
#X obj 66 268 list split 1;
#X obj 106 345 list trim;
#X obj 66 67 route FullPacket;
#X obj 66 127 list trim;
#X obj 66 97 list prepend FullPacket;
#X obj 106 315 list prepend send;
#X connect 0 0 7 0;
#X connect 2 0 4 0;
#X connect 3 0 2 0;
#X connect 4 0 5 0;
#X connect 5 1 10 0;
#X connect 6 0 1 0;
#X connect 7 0 9 0;
#X connect 8 0 3 0;
#X connect 9 0 8 0;
#X connect 10 0 6 0;
#X restore 17 463 pd bundle2bytes;
#X obj 17 97 tgl 15 0 empty empty empty 17 7 0 10 -262144 -1 -1 0 1
;
#X obj 17 136 o.pack /d/13 1;
#N canvas 0 23 450 300 bytes2bundle 0;
#X obj 52 27 inlet;
#X obj 52 261 outlet;
#X obj 52 65 o.pack /list;
#X obj 52 101 o.expr.codebox 199 23 binhex b#2F626E646C203D2062756E646C65282F
b#6C69737429;
#X obj 52 156 o.route /bndl;
#X connect 0 0 2 0;
#X connect 2 0 3 0;
#X connect 3 0 4 0;
#X connect 4 0 1 0;
#X restore 480 85 pd bytes2bundle;
#X obj 17 178 o.expr.codebox 206 42 binhex b#2F642F3133203D20696E743332282F64
b#2F313329;
#X obj 35 259 o.compose 100 24 binhex b#2F612F2A;
#X obj 45 299 o.compose 124 24 binhex b#2F642F7B31332C32317D;
#X obj 55 339 o.compose 114 43 binhex b#2F642F2A203A20312C0A2F642F2A
;
#X text 184 257 Get the value of all the analog pins;
#X text 127 142 (pin 13 on Adafruit Feather);
#X text 127 128 Toggle the onboard LED;
#X text 235 177 Our sketch requires an int \,;
#X text 235 191 but pd only has floats;
#X text 184 337 Set the value of all the digital pins;
#X text 184 351 to 1 (HIGH) \, and get their values;
#X text 184 297 Get the value of pins 13 and 21;
#X connect 0 0 2 0;
#X connect 1 0 0 0;
#X connect 3 0 8 0;
#X connect 5 0 2 0;
#X connect 6 0 7 0;
#X connect 7 0 9 0;
#X connect 8 0 4 0;
#X connect 9 0 5 0;
#X connect 10 0 5 0;
#X connect 11 0 5 0;
#X connect 12 0 5 0;
