#N canvas 747 255 670 564 10;
#X obj 68 158 chorus4896~;
#X obj 66 246 flanger4896~;
#X obj 63 348 outlet~;
#X obj 32 26 inlet~;
#X obj 113 40 inlet;
#X obj 160 38 inlet;
#X obj 217 39 inlet;
#X obj 269 38 inlet;
#X obj 319 37 inlet;
#X obj 371 36 inlet;
#X obj 117 85 scale 0 1 1 100;
#X obj 142 109 scale 0 1 1 100;
#X obj 242 87 scale 0 1 1 100;
#X obj 267 111 scale 0 1 1 100;
#X obj 379 81 scale 0 1 1 100;
#X obj 404 105 scale 0 1 1 100;
#X connect 0 0 1 0;
#X connect 1 0 2 0;
#X connect 3 0 0 0;
#X connect 4 0 10 0;
#X connect 5 0 11 0;
#X connect 6 0 12 0;
#X connect 7 0 13 0;
#X connect 8 0 14 0;
#X connect 9 0 15 0;
#X connect 10 0 0 1;
#X connect 11 0 0 2;
#X connect 12 0 1 1;
#X connect 13 0 1 2;
#X connect 14 0 1 3;
#X connect 15 0 1 4;
