#N canvas 122 129 313 287 12;
#X obj 58 53 * 0.05;
#X floatatom 91 115 5 0 1 0 - - - 0;
#X obj 57 81 +;
#X obj 92 83 clip 0 1;
#X obj 57 26 inlet;
#X obj 129 25 inlet;
#X obj 55 145 outlet;
#X connect 0 0 2 0;
#X connect 1 0 2 1;
#X connect 2 0 6 0;
#X connect 3 0 1 0;
#X connect 4 0 0 0;
#X connect 5 0 3 0;
