#N canvas 310 306 1245 520 12;
#X obj 99 73 tgl 19 0 empty empty empty 17 7 0 10 #dfdfdf #000000 #000000 0 1;
#X obj 131 163 sel 1;
#X floatatom 131 248 5 0 0 0 - - - 0;
#X obj 99 112 t f f;
#X obj 233 163 metro 1 90 permin;
#X obj 131 221 timer 90 permin;
#X text 158 60 Here \, the metronome outputs at intervals of one beat at 90 beats per minute as the timer also set to that tempo measures., f 29;
#X obj 131 192 bng 19 250 50 0 empty empty empty 17 7 0 10 #dfdfdf #000000 #000000;
#X obj 233 192 bng 19 250 50 0 empty empty empty 17 7 0 10 #dfdfdf #000000 #000000;
#X obj 97 33 loadbang;
#X obj 131 271 print pd-counter;
#X msg 376 395 disconnect;
#X obj 346 424 netsend -u -b;
#X obj 937 256 o.display 100 42;
#X obj 440 256 o.pack /adc;
#X msg 351 211 0 1 2 3;
#X obj 570 292 o.display 190 28;
#N canvas 654 38 373 463 bundle2bytes 0;
#X obj 66 41 inlet;
#X obj 106 391 outlet;
#X obj 66 168 o.pack /b;
#X obj 66 235 o.route /b;
#X obj 66 268 list split 1;
#X obj 106 345 list trim;
#X obj 66 67 route FullPacket;
#X obj 66 127 list trim;
#X obj 66 97 list prepend FullPacket;
#X obj 106 315 list prepend send;
#X obj 66 201 o.downcast;
#X connect 0 0 6 0;
#X connect 2 0 10 0;
#X connect 3 0 4 0;
#X connect 4 1 9 0;
#X connect 5 0 1 0;
#X connect 6 0 8 0;
#X connect 7 0 2 0;
#X connect 8 0 7 0;
#X connect 9 0 5 0;
#X connect 10 0 3 0;
#X restore 439 295 pd bundle2bytes;
#N canvas 0 38 450 300 bytes2bundle 0;
#X obj 52 27 inlet;
#X obj 52 261 outlet;
#X obj 52 65 o.pack /list;
#X obj 52 101 o.expr.codebox 199 23 binhex b#2F626E646C203D2062756E646C65282F b#6C69737429;
#X obj 52 156 o.route /bndl;
#X connect 0 0 2 0;
#X connect 2 0 3 0;
#X connect 3 0 4 0;
#X connect 4 0 1 0;
#X restore 938 211 pd bytes2bundle;
#X obj 364 338 loadbang;
#X msg 363 369 connect localhost 12001;
#X obj 761 126 netreceive -u -b 12001;
#X obj 763 244 print osc-in-pd;
#X obj 939 329 o.route /adc;
#X obj 762 161 oscparse;
#X obj 762 185 list trim;
#X obj 762 209 route adc;
#X obj 351 235 oscformat adc;
#X obj 576 79 oscparse;
#X obj 481 45 netreceive -u -b 57120;
#X obj 408 136 print osc-from-py;
#X obj 564 160 print osc-from-py-parsed;
#X connect 0 0 3 0;
#X connect 1 0 7 0;
#X connect 2 0 10 0;
#X connect 3 0 4 0;
#X connect 3 1 1 0;
#X connect 4 0 8 0;
#X connect 4 0 15 0;
#X connect 5 0 2 0;
#X connect 7 0 5 0;
#X connect 8 0 5 1;
#X connect 9 0 0 0;
#X connect 11 0 12 0;
#X connect 13 0 23 0;
#X connect 14 0 16 0;
#X connect 14 0 17 0;
#X connect 15 0 27 0;
#X connect 18 0 13 0;
#X connect 19 0 20 0;
#X connect 20 0 12 0;
#X connect 21 0 24 0;
#X connect 24 0 25 0;
#X connect 25 0 26 0;
#X connect 26 0 22 0;
#X connect 27 0 12 0;
#X connect 28 0 31 0;
#X connect 29 0 28 0;
#X connect 29 0 30 0;
