#N canvas 1122 334 450 300 12;
#X obj 99 73 tgl 19 0 empty empty empty 17 7 0 10 #dfdfdf #000000 #000000 0 1;
#X obj 131 163 sel 1;
#X floatatom 131 248 5 0 0 0 - - - 0;
#X obj 99 112 t f f;
#X obj 233 163 metro 1 90 permin;
#X obj 131 221 timer 90 permin;
#X text 158 60 Here \, the metronome outputs at intervals of one beat at 90 beats per minute as the timer also set to that tempo measures., f 29;
#X obj 131 192 bng 19 250 50 0 empty empty empty 17 7 0 10 #dfdfdf #000000 #000000;
#X obj 233 192 bng 19 250 50 0 empty empty empty 17 7 0 10 #dfdfdf #000000 #000000;
#X obj 131 271 print;
#X obj 97 33 loadbang;
#X connect 0 0 3 0;
#X connect 1 0 7 0;
#X connect 2 0 9 0;
#X connect 3 0 4 0;
#X connect 3 1 1 0;
#X connect 4 0 8 0;
#X connect 5 0 2 0;
#X connect 7 0 5 0;
#X connect 8 0 5 1;
#X connect 10 0 0 0;
