#N canvas 0 62 1512 726 12;
#X msg 367 384 fit xydata paramsdata;
#X obj 259 305 tabwrite xybuf;
#X obj 213 236 pack f 0;
#X obj 342 252 pack f 1;
#X obj 155 636 vsl 19 162 0 1 0 0 empty empty empty 0 -9 0 12 #fcfcfc #000000 #000000 0 1;
#X obj 177 636 vsl 19 162 0 1 0 0 empty empty empty 0 -9 0 12 #fcfcfc #000000 #000000 0 1;
#X obj 198 636 vsl 19 162 0 1 0 0 empty empty empty 0 -9 0 12 #fcfcfc #000000 #000000 0 1;
#X obj 219 636 vsl 19 162 0 1 0 0 empty empty empty 0 -9 0 12 #fcfcfc #000000 #000000 0 1;
#X obj 240 636 vsl 19 162 0 1 0 0 empty empty empty 0 -9 0 12 #fcfcfc #000000 #000000 0 1;
#X obj 450 852 tabwrite paramsbuf;
#X obj 261 636 vsl 19 162 0 1 0 0 empty empty empty 0 -9 0 12 #fcfcfc #000000 #000000 0 1;
#X obj 282 636 vsl 19 162 0 1 0 0 empty empty empty 0 -9 0 12 #fcfcfc #000000 #000000 0 1;
#X obj 304 636 vsl 19 162 0 1 0 0 empty empty empty 0 -9 0 12 #fcfcfc #000000 #000000 0 1;
#X obj 326 636 vsl 19 162 0 1 0 0 empty empty empty 0 -9 0 12 #fcfcfc #000000 #000000 0 1;
#X obj 347 636 vsl 19 162 0 1 0 0 empty empty empty 0 -9 0 12 #fcfcfc #000000 #000000 0 1;
#N canvas 82 177 1270 641 chaoticsynth 0;
#X obj 80 38 inlet;
#X msg 80 62 \$1 10;
#X obj 80 86 line~;
#X obj 48 110 *~, f 5;
#X obj 48 12 r~ feed2;
#X obj 130 37 inlet;
#X msg 130 61 \$1 10;
#X obj 130 85 line~;
#X obj 48 134 +~, f 12;
#X obj 48 158 *~ 69;
#X obj 48 182 mtof~;
#X obj 48 206 osc~;
#X obj 48 230 *~, f 18;
#X obj 48 254 clip~ -1 1;
#X obj 171 111 inlet;
#X msg 171 159 \$1 10;
#X obj 171 182 line~;
#X obj 171 136 * 50;
#X obj 171 205 expr~ pow(10 \, $v1/20);
#X obj 49 337 vcf~, f 30;
#X obj 255 231 inlet;
#X msg 255 283 \$1 10;
#X obj 255 314 line;
#X obj 255 255 * 0.96;
#X obj 49 386 *~ 0.1;
#X obj 100 386 send~ feed1;
#X obj 49 410 outlet~;
#X obj 202 387 fluid.loudness~ -hopsize 64 -truepeak 0;
#X obj 202 411 unpack f f;
#X obj 202 435 clip -120 0;
#X obj 202 459 + 120;
#X msg 202 483 \$1 2;
#X obj 202 507 line~;
#X obj 202 531 *~, f 18;
#X obj 319 457 inlet;
#X msg 319 481 \$1 10;
#X obj 319 505 line~;
#X obj 135 507 loadbang;
#X msg 135 531 130;
#X obj 135 555 -~, f 10;
#X obj 135 579 mtof~;
#X obj 135 603 s~ cutoff1;
#X obj 152 310 r~ cutoff1;
#X obj 541 38 inlet;
#X msg 541 62 \$1 10;
#X obj 541 86 line~;
#X obj 509 110 *~, f 5;
#X obj 591 37 inlet;
#X msg 591 61 \$1 10;
#X obj 591 85 line~;
#X obj 509 134 +~, f 12;
#X obj 509 158 *~ 69;
#X obj 509 182 mtof~;
#X obj 509 206 osc~;
#X obj 509 230 *~, f 18;
#X obj 509 254 clip~ -1 1;
#X obj 632 111 inlet;
#X msg 632 159 \$1 10;
#X obj 632 182 line~;
#X obj 632 136 * 50;
#X obj 632 205 expr~ pow(10 \, $v1/20);
#X obj 510 337 vcf~, f 30;
#X obj 716 231 inlet;
#X msg 716 283 \$1 10;
#X obj 716 314 line;
#X obj 716 255 * 0.96;
#X obj 510 386 *~ 0.1;
#X obj 510 410 outlet~;
#X obj 663 387 fluid.loudness~ -hopsize 64 -truepeak 0;
#X obj 663 411 unpack f f;
#X obj 663 435 clip -120 0;
#X obj 663 459 + 120;
#X msg 663 483 \$1 2;
#X obj 663 507 line~;
#X obj 663 531 *~, f 18;
#X obj 780 457 inlet;
#X msg 780 481 \$1 10;
#X obj 780 505 line~;
#X obj 596 507 loadbang;
#X msg 596 531 130;
#X obj 596 555 -~, f 10;
#X obj 596 579 mtof~;
#X obj 561 386 send~ feed2;
#X obj 509 12 r~ feed1;
#X obj 613 310 r~ cutoff2;
#X obj 596 603 s~ cutoff2;
#X connect 0 0 1 0;
#X connect 1 0 2 0;
#X connect 2 0 3 1;
#X connect 3 0 8 0;
#X connect 4 0 3 0;
#X connect 5 0 6 0;
#X connect 6 0 7 0;
#X connect 7 0 8 1;
#X connect 8 0 9 0;
#X connect 9 0 10 0;
#X connect 10 0 11 0;
#X connect 11 0 12 0;
#X connect 12 0 13 0;
#X connect 13 0 19 0;
#X connect 14 0 17 0;
#X connect 15 0 16 0;
#X connect 16 0 18 0;
#X connect 17 0 15 0;
#X connect 18 0 12 1;
#X connect 19 0 24 0;
#X connect 19 0 25 0;
#X connect 19 0 27 0;
#X connect 20 0 23 0;
#X connect 21 0 22 0;
#X connect 22 0 19 2;
#X connect 23 0 21 0;
#X connect 24 0 26 0;
#X connect 27 0 28 0;
#X connect 28 0 29 0;
#X connect 29 0 30 0;
#X connect 30 0 31 0;
#X connect 31 0 32 0;
#X connect 32 0 33 0;
#X connect 33 0 39 1;
#X connect 34 0 35 0;
#X connect 35 0 36 0;
#X connect 36 0 33 1;
#X connect 37 0 38 0;
#X connect 38 0 39 0;
#X connect 39 0 40 0;
#X connect 40 0 41 0;
#X connect 42 0 19 1;
#X connect 43 0 44 0;
#X connect 44 0 45 0;
#X connect 45 0 46 1;
#X connect 46 0 50 0;
#X connect 47 0 48 0;
#X connect 48 0 49 0;
#X connect 49 0 50 1;
#X connect 50 0 51 0;
#X connect 51 0 52 0;
#X connect 52 0 53 0;
#X connect 53 0 54 0;
#X connect 54 0 55 0;
#X connect 55 0 61 0;
#X connect 56 0 59 0;
#X connect 57 0 58 0;
#X connect 58 0 60 0;
#X connect 59 0 57 0;
#X connect 60 0 54 1;
#X connect 61 0 66 0;
#X connect 61 0 68 0;
#X connect 61 0 82 0;
#X connect 62 0 65 0;
#X connect 63 0 64 0;
#X connect 64 0 61 2;
#X connect 65 0 63 0;
#X connect 66 0 67 0;
#X connect 68 0 69 0;
#X connect 69 0 70 0;
#X connect 70 0 71 0;
#X connect 71 0 72 0;
#X connect 72 0 73 0;
#X connect 73 0 74 0;
#X connect 74 0 80 1;
#X connect 75 0 76 0;
#X connect 76 0 77 0;
#X connect 77 0 74 1;
#X connect 78 0 79 0;
#X connect 79 0 80 0;
#X connect 80 0 81 0;
#X connect 81 0 85 0;
#X connect 83 0 46 0;
#X connect 84 0 61 1;
#X restore 154 819 pd chaoticsynth;
#X f 28;
#X obj 151 1129 dac~;
#N canvas 451 377 783 300 packslider 0;
#X obj 6 55 pack f 0;
#X obj 70 55 pack f 1;
#X obj 133 55 pack f 2;
#X obj 197 55 pack f 3;
#X obj 262 55 pack f 4;
#X obj 324 54 pack f 5;
#X obj 388 54 pack f 6;
#X obj 451 54 pack f 7;
#X obj 515 54 pack f 8;
#X obj 6 102 outlet;
#X obj 7 27 inlet;
#X obj 263 27 inlet;
#X obj 133 29 inlet;
#X obj 196 27 inlet;
#X obj 580 54 pack f 9;
#X obj 70 28 inlet;
#X obj 322 24 inlet;
#X obj 578 24 inlet;
#X obj 448 26 inlet;
#X obj 511 24 inlet;
#X obj 385 25 inlet;
#X obj 647 25 inlet;
#X obj 649 55 pack f 10;
#X obj 722 27 inlet;
#X obj 724 57 pack f 11;
#X connect 0 0 9 0;
#X connect 1 0 9 0;
#X connect 2 0 9 0;
#X connect 3 0 9 0;
#X connect 4 0 9 0;
#X connect 5 0 9 0;
#X connect 6 0 9 0;
#X connect 7 0 9 0;
#X connect 8 0 9 0;
#X connect 10 0 0 0;
#X connect 11 0 4 0;
#X connect 12 0 2 0;
#X connect 13 0 3 0;
#X connect 14 0 9 0;
#X connect 15 0 1 0;
#X connect 16 0 5 0;
#X connect 17 0 14 0;
#X connect 18 0 7 0;
#X connect 19 0 8 0;
#X connect 20 0 6 0;
#X connect 21 0 22 0;
#X connect 22 0 9 0;
#X connect 23 0 24 0;
#X connect 24 0 9 0;
#X restore 450 829 pd packslider;
#X f 18;
#X msg 603 227 addpoint \$1 xybuf;
#X msg 756 227 addpoint \$1 paramsbuf;
#X obj 603 251 fluid.dataset xydata;
#X obj 602 187 f, f 7;
#X obj 602 163 bng 19 250 50 0 empty empty empty 0 -10 0 12 #fcfcfc #000000 #000000;
#X msg 931 227 print;
#X msg 981 227 clear;
#X obj 155 216 vradio 19 1 0 2 empty empty empty 0 -10 0 12 #fcfcfc #000000 #000000 0;
#X obj 154 551 array get paramsbuf;
#X text 37 215 selecting points;
#X text 30 234 predicting points;
#X obj 756 251 fluid.dataset paramsdata;
#X msg 154 384 predictpoint xybuf paramsbuf;
#X obj 154 503 t b;
#X obj 154 475 route predictpoint fit;
#X msg 1056 124 \; pd dsp \$1;
#X obj 1056 97 tgl 19 0 empty empty empty 0 -10 0 12 #fcfcfc #000000 #000000 0 1;
#X obj 375 701 cnv 15 15 15 empty empty empty 20 12 0 14 #c6ffc7 #404040 0;
#X text 375 699 3) adjust the parameters for the chaotic synth, f 24;
#X obj 633 148 cnv 15 15 15 empty empty empty 20 12 0 14 #c6ffc7 #404040 0;
#X obj 526 386 cnv 15 15 15 empty empty empty 20 12 0 14 #c6ffc7 #404040 0;
#X text 39 260 6) switch to predicting points, f 18;
#X obj 671 187 + 1;
#X text 634 146 4) click to add the settings to the datasets. repeat steps 2 to 4 to add more data to the datasets, f 52;
#X text 526 384 5) click to teach mlpregressor \, repeat to get as close to zero error as possible (the fit is shown in the console window), f 39;
#X obj 229 503 list;
#X listbox 229 527 20 0 0 0 - - - 0;
#X text 376 526 error;
#X obj 154 409 fluid.mlpregressor mlp -hiddenlayers 5 -activation 1 -outputactivation 1 -batchsize 1 -maxiter 10000 -learnrate 0.1 -validation 0, f 42;
#X obj 155 327 spigot;
#X obj 213 274 t b l;
#X obj 1213 71 wearpi-controls;
#N canvas 185 231 1067 597 random 0;
#X obj 30 114 random 1001;
#X obj 30 138 / 1000;
#X obj 28 18 inlet bang;
#X obj 30 164 outlet;
#X obj 129 113 random 1001;
#X obj 129 137 / 1000;
#X obj 129 163 outlet;
#X obj 222 113 random 1001;
#X obj 222 137 / 1000;
#X obj 222 163 outlet;
#X obj 318 111 random 1001;
#X obj 318 135 / 1000;
#X obj 318 161 outlet;
#X obj 417 110 random 1001;
#X obj 417 134 / 1000;
#X obj 417 160 outlet;
#X obj 510 110 random 1001;
#X obj 510 134 / 1000;
#X obj 510 160 outlet;
#X obj 603 110 random 1001;
#X obj 603 134 / 1000;
#X obj 603 160 outlet;
#X obj 699 108 random 1001;
#X obj 699 132 / 1000;
#X obj 699 158 outlet;
#X obj 798 107 random 1001;
#X obj 798 131 / 1000;
#X obj 798 157 outlet;
#X obj 891 107 random 1001;
#X obj 891 131 / 1000;
#X obj 891 157 outlet;
#X connect 0 0 1 0;
#X connect 1 0 3 0;
#X connect 2 0 0 0;
#X connect 2 0 4 0;
#X connect 2 0 7 0;
#X connect 2 0 10 0;
#X connect 2 0 13 0;
#X connect 2 0 16 0;
#X connect 2 0 19 0;
#X connect 2 0 22 0;
#X connect 2 0 25 0;
#X connect 2 0 28 0;
#X connect 4 0 5 0;
#X connect 5 0 6 0;
#X connect 7 0 8 0;
#X connect 8 0 9 0;
#X connect 10 0 11 0;
#X connect 11 0 12 0;
#X connect 13 0 14 0;
#X connect 14 0 15 0;
#X connect 16 0 17 0;
#X connect 17 0 18 0;
#X connect 19 0 20 0;
#X connect 20 0 21 0;
#X connect 22 0 23 0;
#X connect 23 0 24 0;
#X connect 25 0 26 0;
#X connect 26 0 27 0;
#X connect 28 0 29 0;
#X connect 29 0 30 0;
#X restore 450 598 pd random;
#X f 21;
#X obj 451 573 bng 19 250 50 0 empty empty empty 0 -10 0 12 #fcfcfc #000000 #000000;
#X obj 452 496 r key;
#X obj 1056 30 loadbang;
#X obj 594 628 print random;
#X obj 213 179 r adc;
#X obj 138 185 tgl 19 0 empty empty empty 0 -10 0 12 #fcfcfc #000000 #000000 0 1;
#X obj 414 66 vsl 19 162 0 1 0 0 empty empty empty 0 -9 0 12 #fcfcfc #000000 #000000 0 1;
#X obj 152 1032 *~;
#X obj 186 1035 *~;
#X obj 1229 747 r enc-rot;
#X obj 1226 832 vsl 19 162 0.01 1 1 0 empty empty empty 0 -9 0 12 #fcfcfc #000000 #000000 0 1;
#X obj 1206 690 loadbang;
#X msg 1206 714 0.8;
#X obj 817 372 t b b;
#X obj 850 431 until;
#X msg 848 402 5;
#X msg 39 118 1;
#X obj 816 291 r key;
#X obj 816 345 sel 1;
#X msg 816 315 \$3;
#X msg 1229 771 \$1;
#X obj 451 547 sel 1;
#X msg 451 523 \$1;
#X obj 600 10 r key;
#X obj 600 64 sel 1;
#X msg 600 34 \$2;
#X obj 415 9 r enc-rot;
#X msg 415 33 \$4;
#X obj 1229 799 rot2slider;
#X obj 441 62 rot2slider;
#X obj 1056 54 del 2000;
#X msg 1142 106 "starting DSP";
#X obj 1142 130 print DSP;
#X text 867 372 train and run;
#X obj 778 617 vsl 19 162 0 1 0 0 empty empty empty 0 -9 0 12 #fcfcfc #000000 #000000 0 1;
#X obj 805 601 r enc-rot;
#X msg 805 625 \$2;
#X obj 806 660 rot2slider;
#X obj 154 857 *~;
#X obj 191 871 *~;
#X obj 776 550 loadbang;
#X msg 776 574 1;
#X text 835 625 learnable volume;
#X obj 259 326 array define xybuf 2;
#X msg 213 210 \$1;
#X obj 341 187 r adc;
#X msg 341 218 \$1;
#X floatatom 394 932 4 0 100 0 - - - 0;
#X obj 154 934 rev2~ 100 90 3000 20;
#X obj 201 972 rev2~ 100 90 3000 20;
#X obj 958 776 vsl 19 162 0 1 0 0 empty empty empty 0 -9 0 12 #fcfcfc #000000 #000000 0 1;
#X obj 960 718 r enc-rot;
#X msg 960 742 \$3;
#X obj 982 773 rot2slider;
#X obj 392 906 * 100;
#X obj 957 665 loadbang;
#X msg 957 689 0;
#X msg 519 326 clear;
#X msg 480 219 \$4;
#X obj 480 243 sel 1;
#X obj 519 300 bng 19 250 50 0 empty empty empty 0 -10 0 12 #fcfcfc #000000 #000000;
#X obj 479 270 t b b;
#X obj 816 456 s predict;
#X obj 39 65 r predict;
#X obj 156 69 r select;
#X msg 156 94 0;
#X obj 478 355 s select;
#X obj 480 195 r enc-but;
#X msg 250 70 \$4;
#X obj 250 94 sel 1;
#X obj 250 46 r key;
#X obj 450 873 array define paramsbuf 12;
#X text 996 744 learnable reverb;
#X obj 154 575 unpack f f f f f f f f f f f f;
#X obj 1327 752 r enc-but;
#X obj 1327 800 sel 1;
#X obj 1327 824 tgl 19 0 empty empty empty 0 -10 0 12 #fcfcfc #000000 #000000 0 1;
#X obj 1402 752 loadbang;
#X obj 144 1077 *~;
#X msg 1328 900 \$1 50;
#X obj 1327 1003 line~;
#X obj 179 1078 *~;
#X obj 1327 849 swap 1;
#X obj 1327 871 -;
#X text 1350 825 mute;
#X msg 1327 776 \$1;
#X msg 1402 776 0;
#X connect 0 0 46 0;
#X connect 2 0 48 0;
#X connect 3 0 48 0;
#X connect 4 0 17 0;
#X connect 4 0 15 0;
#X connect 5 0 17 1;
#X connect 5 0 15 1;
#X connect 6 0 17 2;
#X connect 6 0 15 2;
#X connect 7 0 17 3;
#X connect 7 0 15 3;
#X connect 8 0 17 4;
#X connect 8 0 15 4;
#X connect 10 0 17 5;
#X connect 10 0 15 5;
#X connect 11 0 17 6;
#X connect 11 0 15 6;
#X connect 12 0 17 7;
#X connect 12 0 15 7;
#X connect 13 0 17 8;
#X connect 13 0 15 8;
#X connect 14 0 17 9;
#X connect 14 0 15 9;
#X connect 15 0 89 0;
#X connect 15 1 90 0;
#X connect 17 0 9 0;
#X connect 18 0 20 0;
#X connect 19 0 29 0;
#X connect 21 0 18 0;
#X connect 21 0 19 0;
#X connect 21 0 40 0;
#X connect 22 0 21 0;
#X connect 23 0 20 0;
#X connect 23 0 29 0;
#X connect 24 0 20 0;
#X connect 24 0 29 0;
#X connect 25 0 47 1;
#X connect 26 0 124 0;
#X connect 30 0 46 0;
#X connect 31 0 26 0;
#X connect 32 0 31 0;
#X connect 32 1 43 0;
#X connect 34 0 33 0;
#X connect 40 0 21 1;
#X connect 43 0 44 0;
#X connect 46 0 32 0;
#X connect 47 0 30 0;
#X connect 48 0 47 0;
#X connect 48 1 1 0;
#X connect 50 0 4 0;
#X connect 50 1 5 0;
#X connect 50 2 6 0;
#X connect 50 3 7 0;
#X connect 50 4 8 0;
#X connect 50 5 10 0;
#X connect 50 6 11 0;
#X connect 50 7 12 0;
#X connect 50 8 13 0;
#X connect 50 9 14 0;
#X connect 50 9 54 0;
#X connect 51 0 50 0;
#X connect 52 0 73 0;
#X connect 53 0 81 0;
#X connect 55 0 95 0;
#X connect 56 0 25 0;
#X connect 57 0 80 1;
#X connect 58 0 129 1;
#X connect 59 0 132 1;
#X connect 60 0 71 0;
#X connect 61 0 59 1;
#X connect 61 0 58 1;
#X connect 61 0 79 1;
#X connect 62 0 63 0;
#X connect 63 0 61 0;
#X connect 64 0 113 0;
#X connect 64 1 66 0;
#X connect 65 0 0 0;
#X connect 66 0 65 0;
#X connect 67 0 56 0;
#X connect 68 0 70 0;
#X connect 69 0 64 0;
#X connect 70 0 69 0;
#X connect 71 0 79 0;
#X connect 72 0 51 0;
#X connect 73 0 72 0;
#X connect 74 0 76 0;
#X connect 75 0 22 0;
#X connect 76 0 75 0;
#X connect 77 0 78 0;
#X connect 78 0 80 0;
#X connect 79 0 61 0;
#X connect 80 0 57 0;
#X connect 81 0 34 0;
#X connect 81 0 82 0;
#X connect 82 0 83 0;
#X connect 85 0 88 1;
#X connect 85 0 90 1;
#X connect 85 0 89 1;
#X connect 85 0 17 10;
#X connect 86 0 87 0;
#X connect 87 0 88 0;
#X connect 88 0 85 0;
#X connect 89 0 99 0;
#X connect 90 0 100 0;
#X connect 91 0 92 0;
#X connect 92 0 85 0;
#X connect 95 0 2 0;
#X connect 96 0 97 0;
#X connect 97 0 3 0;
#X connect 98 0 99 2;
#X connect 98 0 100 2;
#X connect 99 0 58 0;
#X connect 100 0 59 0;
#X connect 101 0 104 1;
#X connect 101 0 105 0;
#X connect 101 0 17 11;
#X connect 102 0 103 0;
#X connect 103 0 104 0;
#X connect 104 0 101 0;
#X connect 105 0 98 0;
#X connect 106 0 107 0;
#X connect 107 0 101 0;
#X connect 108 0 46 0;
#X connect 109 0 110 0;
#X connect 110 0 112 0;
#X connect 111 0 108 0;
#X connect 112 0 117 0;
#X connect 112 1 111 0;
#X connect 114 0 67 0;
#X connect 115 0 116 0;
#X connect 116 0 56 0;
#X connect 118 0 109 0;
#X connect 119 0 120 0;
#X connect 120 0 116 0;
#X connect 121 0 119 0;
#X connect 124 0 4 0;
#X connect 124 1 5 0;
#X connect 124 2 6 0;
#X connect 124 3 7 0;
#X connect 124 4 8 0;
#X connect 124 5 10 0;
#X connect 124 6 11 0;
#X connect 124 7 12 0;
#X connect 124 8 13 0;
#X connect 124 9 14 0;
#X connect 124 10 85 0;
#X connect 124 11 101 0;
#X connect 125 0 136 0;
#X connect 126 0 127 0;
#X connect 127 0 133 0;
#X connect 128 0 137 0;
#X connect 129 0 16 0;
#X connect 130 0 131 0;
#X connect 131 0 129 0;
#X connect 131 0 132 0;
#X connect 132 0 16 1;
#X connect 133 0 134 0;
#X connect 133 1 134 1;
#X connect 134 0 130 0;
#X connect 136 0 126 0;
#X connect 137 0 127 0;
