#N canvas 606 370 777 568 12;
#X obj 371 109 oscparse;
#X obj 371 82 netreceive -u -b 1337;
#X msg 72 208 disconnect;
#X obj 42 237 netsend -u -b;
#X text 145 238 send as UDP \, binary;
#X msg 59 182 connect localhost 1337;
#X msg 42 31 0 1 2 3;
#X obj 371 138 list trim;
#X obj 371 197 route adc;
#X obj 371 224 print adc;
#X obj 667 199 route keys;
#X obj 667 226 print keys;
#X obj 448 199 route enc-rot;
#X obj 554 199 route enc-push;
#X obj 554 225 print enc-push;
#X obj 448 225 print enc-rot;
#X obj 42 67 oscformat adc;
#X msg 148 31 0 1 2 3;
#X msg 51 93 0 1 2 3;
#X msg 187 93 0 1 2 3;
#X obj 148 67 oscformat enc-rot;
#X obj 187 129 oscformat keys;
#X obj 51 129 oscformat enc-push;
#X connect 0 0 7 0;
#X connect 1 0 0 0;
#X connect 2 0 3 0;
#X connect 5 0 3 0;
#X connect 6 0 16 0;
#X connect 7 0 8 0;
#X connect 7 0 12 0;
#X connect 7 0 13 0;
#X connect 7 0 10 0;
#X connect 8 0 9 0;
#X connect 10 0 11 0;
#X connect 12 0 15 0;
#X connect 13 0 14 0;
#X connect 16 0 3 0;
#X connect 17 0 20 0;
#X connect 18 0 22 0;
#X connect 19 0 21 0;
#X connect 20 0 3 0;
#X connect 21 0 3 0;
#X connect 22 0 3 0;
