#N canvas 0 62 2560 1387 12;
#X msg 367 384 fit xydata paramsdata;
#X obj 259 305 tabwrite xybuf;
#X obj 196 229 pack f 0;
#X obj 265 232 pack f 1;
#X obj 155 636 vsl 19 162 0 1 0 0 empty empty empty 0 -9 0 12 #fcfcfc #000000 #000000 0 1;
#X obj 198 636 vsl 19 162 0 1 0 0 empty empty empty 0 -9 0 12 #fcfcfc #000000 #000000 0 1;
#X obj 219 636 vsl 19 162 0 1 0 0 empty empty empty 0 -9 0 12 #fcfcfc #000000 #000000 0 1;
#X obj 240 636 vsl 19 162 0 1 0 0 empty empty empty 0 -9 0 12 #fcfcfc #000000 #000000 0 1;
#X obj 450 852 tabwrite paramsbuf;
#X obj 261 636 vsl 19 162 0 1 0 0 empty empty empty 0 -9 0 12 #fcfcfc #000000 #000000 0 1;
#X obj 282 636 vsl 19 162 0 1 0 0 empty empty empty 0 -9 0 12 #fcfcfc #000000 #000000 0 1;
#X obj 304 636 vsl 19 162 0 1 0 0 empty empty empty 0 -9 0 12 #fcfcfc #000000 #000000 0 1;
#X obj 326 636 vsl 19 162 0 1 0 0 empty empty empty 0 -9 0 12 #fcfcfc #000000 #000000 0 1;
#X obj 347 636 vsl 19 162 0 1 0 0 empty empty empty 0 -9 0 12 #fcfcfc #000000 #000000 0 1;
#X obj 151 1129 dac~;
#N canvas 461 135 979 325 packslider 0;
#X obj 6 55 pack f 0;
#X obj 70 55 pack f 1;
#X obj 133 55 pack f 2;
#X obj 197 55 pack f 3;
#X obj 262 55 pack f 4;
#X obj 324 54 pack f 5;
#X obj 388 54 pack f 6;
#X obj 451 54 pack f 7;
#X obj 515 54 pack f 8;
#X obj 6 102 outlet;
#X obj 7 27 inlet;
#X obj 263 27 inlet;
#X obj 133 29 inlet;
#X obj 196 27 inlet;
#X obj 580 54 pack f 9;
#X obj 70 28 inlet;
#X obj 322 24 inlet;
#X obj 578 24 inlet;
#X obj 448 26 inlet;
#X obj 511 24 inlet;
#X obj 385 25 inlet;
#X obj 647 25 inlet;
#X obj 649 55 pack f 10;
#X obj 722 27 inlet;
#X obj 724 57 pack f 11;
#X connect 0 0 9 0;
#X connect 1 0 9 0;
#X connect 2 0 9 0;
#X connect 3 0 9 0;
#X connect 4 0 9 0;
#X connect 5 0 9 0;
#X connect 6 0 9 0;
#X connect 7 0 9 0;
#X connect 8 0 9 0;
#X connect 10 0 0 0;
#X connect 11 0 4 0;
#X connect 12 0 2 0;
#X connect 13 0 3 0;
#X connect 14 0 9 0;
#X connect 15 0 1 0;
#X connect 16 0 5 0;
#X connect 17 0 14 0;
#X connect 18 0 7 0;
#X connect 19 0 8 0;
#X connect 20 0 6 0;
#X connect 21 0 22 0;
#X connect 22 0 9 0;
#X connect 23 0 24 0;
#X connect 24 0 9 0;
#X restore 450 827 pd packslider;
#X f 42;
#X msg 603 227 addpoint \$1 xybuf;
#X msg 756 227 addpoint \$1 paramsbuf;
#X obj 603 251 fluid.dataset xydata;
#X obj 602 187 f, f 7;
#X obj 602 163 bng 19 250 50 0 empty empty empty 0 -10 0 12 #fcfcfc #000000 #000000;
#X msg 931 227 print;
#X msg 981 227 clear;
#X obj 155 216 vradio 19 1 0 2 empty empty empty 0 -10 0 12 #fcfcfc #000000 #000000 0;
#X obj 154 551 array get paramsbuf;
#X text 37 215 selecting points;
#X text 30 234 predicting points;
#X obj 756 251 fluid.dataset paramsdata;
#X msg 154 384 predictpoint xybuf paramsbuf;
#X obj 154 503 t b;
#X obj 154 475 route predictpoint fit;
#X msg 1056 124 \; pd dsp \$1;
#X obj 1056 97 tgl 19 0 empty empty empty 0 -10 0 12 #fcfcfc #000000 #000000 0 1;
#X obj 633 148 cnv 15 15 15 empty empty empty 20 12 0 14 #c6ffc7 #404040 0;
#X text 39 260 6) switch to predicting points, f 18;
#X obj 671 187 + 1;
#X text 634 146 4) click to add the settings to the datasets. repeat steps 2 to 4 to add more data to the datasets, f 52;
#X text 526 382 5) click to teach mlpregressor \, repeat to get as close to zero error as possible (the fit is shown in the console window), f 39;
#X obj 229 503 list;
#X listbox 229 527 20 0 0 0 - - - 0;
#X text 376 526 error;
#X obj 154 409 fluid.mlpregressor mlp -hiddenlayers 5 -activation 1 -outputactivation 1 -batchsize 1 -maxiter 10000 -learnrate 0.1 -validation 0, f 42;
#X obj 155 327 spigot;
#X obj 213 274 t b l;
#X obj 1213 71 wearpi-controls;
#N canvas 185 231 1067 597 random 0;
#X obj 30 114 random 1001;
#X obj 30 138 / 1000;
#X obj 28 18 inlet bang;
#X obj 30 164 outlet;
#X obj 129 113 random 1001;
#X obj 129 137 / 1000;
#X obj 129 163 outlet;
#X obj 222 113 random 1001;
#X obj 222 137 / 1000;
#X obj 222 163 outlet;
#X obj 318 111 random 1001;
#X obj 318 135 / 1000;
#X obj 318 161 outlet;
#X obj 417 110 random 1001;
#X obj 417 134 / 1000;
#X obj 417 160 outlet;
#X obj 510 110 random 1001;
#X obj 510 134 / 1000;
#X obj 510 160 outlet;
#X obj 603 110 random 1001;
#X obj 603 134 / 1000;
#X obj 603 160 outlet;
#X obj 699 108 random 1001;
#X obj 699 132 / 1000;
#X obj 699 158 outlet;
#X obj 798 107 random 1001;
#X obj 798 131 / 1000;
#X obj 798 157 outlet;
#X obj 891 107 random 1001;
#X obj 891 131 / 1000;
#X obj 891 157 outlet;
#X connect 0 0 1 0;
#X connect 1 0 3 0;
#X connect 2 0 0 0;
#X connect 2 0 4 0;
#X connect 2 0 7 0;
#X connect 2 0 10 0;
#X connect 2 0 13 0;
#X connect 2 0 16 0;
#X connect 2 0 19 0;
#X connect 2 0 22 0;
#X connect 2 0 25 0;
#X connect 2 0 28 0;
#X connect 4 0 5 0;
#X connect 5 0 6 0;
#X connect 7 0 8 0;
#X connect 8 0 9 0;
#X connect 10 0 11 0;
#X connect 11 0 12 0;
#X connect 13 0 14 0;
#X connect 14 0 15 0;
#X connect 16 0 17 0;
#X connect 17 0 18 0;
#X connect 19 0 20 0;
#X connect 20 0 21 0;
#X connect 22 0 23 0;
#X connect 23 0 24 0;
#X connect 25 0 26 0;
#X connect 26 0 27 0;
#X connect 28 0 29 0;
#X connect 29 0 30 0;
#X restore 467 489 pd random;
#X f 21;
#X obj 468 464 bng 19 250 50 0 empty empty empty 0 -10 0 12 #fcfcfc #000000 #000000;
#X obj 469 387 r key;
#X obj 1056 30 loadbang;
#X obj 594 628 print random;
#X obj 196 172 r adc;
#X obj 138 185 tgl 19 0 empty empty empty 0 -10 0 12 #fcfcfc #000000 #000000 0 1;
#X obj 176 637 vsl 19 162 0 1 0 0 empty empty empty 0 -9 0 12 #fcfcfc #000000 #000000 0 1;
#X obj 152 1032 *~;
#X obj 186 1035 *~;
#X obj 1170 751 r enc-rot;
#X obj 1167 836 vsl 19 162 0.01 1 1 0 empty empty empty 0 -9 0 12 #fcfcfc #000000 #000000 0 1;
#X obj 1147 694 loadbang;
#X msg 1147 718 0.8;
#X obj 817 372 t b b;
#X obj 850 431 until;
#X msg 848 402 5;
#X msg 39 118 1;
#X obj 816 291 r key;
#X obj 816 345 sel 1;
#X msg 816 315 \$3;
#X msg 1170 775 \$1;
#X obj 468 438 sel 1;
#X msg 468 414 \$1;
#X obj 600 10 r key;
#X obj 600 64 sel 1;
#X msg 600 34 \$2;
#X obj 757 500 r enc-rot;
#X msg 757 524 \$4;
#X obj 1170 803 rot2slider;
#X obj 783 553 rot2slider;
#X obj 1056 54 del 2000;
#X msg 1142 106 "starting DSP";
#X obj 1142 130 print DSP;
#X text 867 372 train and run;
#X obj 752 803 vsl 19 162 0 1 0 0 empty empty empty 0 -9 0 12 #fcfcfc #000000 #000000 0 1;
#X obj 779 787 r enc-rot;
#X msg 779 811 \$2;
#X obj 780 846 rot2slider;
#X obj 154 872 *~;
#X obj 191 871 *~;
#X obj 750 736 loadbang;
#X msg 750 760 1;
#X text 809 811 learnable volume;
#X msg 196 203 \$1;
#X obj 264 167 r adc;
#X floatatom 394 932 4 0 100 0 - - - 0;
#X obj 154 934 rev2~ 100 90 3000 20;
#X obj 201 972 rev2~ 100 90 3000 20;
#X obj 953 820 vsl 19 162 0 1 0 0 empty empty empty 0 -9 0 12 #fcfcfc #000000 #000000 0 1;
#X obj 977 765 r enc-rot;
#X msg 977 789 \$3;
#X obj 977 817 rot2slider;
#X obj 392 906 * 100;
#X obj 952 709 loadbang;
#X msg 952 733 0;
#X msg 537 305 clear;
#X msg 498 198 \$4;
#X obj 498 222 sel 1;
#X obj 537 279 bng 19 250 50 0 empty empty empty 0 -10 0 12 #fcfcfc #000000 #000000;
#X obj 497 249 t b b;
#X obj 816 456 s predict;
#X obj 39 65 r predict;
#X obj 156 69 r select;
#X msg 156 94 0;
#X obj 496 334 s select;
#X obj 498 174 r enc-but;
#X msg 250 70 \$4;
#X obj 250 94 sel 1;
#X obj 250 46 r key;
#X text 1013 791 learnable reverb;
#X obj 1364 752 r enc-but;
#X obj 1364 800 sel 1;
#X obj 1364 824 tgl 19 0 empty empty empty 0 -10 0 12 #fcfcfc #000000 #000000 0 1;
#X obj 1439 752 loadbang;
#X obj 144 1077 *~;
#X msg 1365 900 \$1 50;
#X obj 1364 1003 line~;
#X obj 179 1078 *~;
#X obj 1364 849 swap 1;
#X obj 1364 871 -;
#X text 1387 825 mute;
#X msg 1364 776 \$1;
#X msg 1439 776 0;
#X msg 264 198 \$2;
#X obj 259 326 array define xybuf 4;
#X obj 332 176 r adc;
#X obj 400 171 r adc;
#X msg 332 207 \$3;
#X obj 332 233 pack f 2;
#X msg 400 202 \$4;
#X obj 401 236 pack f 3;
#N canvas 1267 434 1270 853 granular 0;
#X obj 212 291 jags_module;
#X obj 737 758 loadbang;
#X floatatom 513 208 5 0 0 0 - - - 0;
#X floatatom 74 201 5 0 0 0 - - - 0;
#X obj 769 131 loadbang;
#X floatatom 211 204 5 0 0 0 - - - 0;
#X floatatom 262 205 5 0 0 0 - - - 0;
#X floatatom 326 197 5 0 0 0 - - - 0;
#X floatatom 425 208 5 0 0 0 - - - 0;
#X floatatom 470 207 5 0 0 0 - - - 0;
#X msg 1000 179 1;
#X floatatom 687 209 5 0 0 0 - - - 0;
#X floatatom 556 208 5 0 0 0 - - - 0;
#X floatatom 599 209 5 0 0 0 - - - 0;
#X floatatom 644 208 5 0 0 0 - - - 0;
#X msg 1217 182 1;
#X msg 1174 180 100;
#X msg 911 179 2622;
#X msg 1129 181 100;
#X msg 1086 180 1;
#X msg 1043 181 50;
#X msg 955 180 24;
#X msg 822 180 0.359;
#X msg 778 179 5000;
#X msg 868 179 0.5;
#X text 735 806 SAMPLE TO LOAD ON STARTUP;
#X obj 73 56 inlet;
#X obj 212 59 inlet;
#X obj 259 63 inlet;
#X obj 304 62 inlet;
#X obj 419 54 inlet;
#X obj 470 57 inlet;
#X obj 514 56 inlet;
#X obj 558 56 inlet;
#X obj 601 56 inlet;
#X obj 645 58 inlet;
#X obj 68 94 scale 0 1 30 500;
#X obj 321 138 scale 0 1 1 1500;
#X obj 498 100 scale 0 1 0 1000;
#X obj 598 159 scale 0 1 0 1000;
#X obj 644 113 scale 0 1 0 100;
#X obj 524 133 scale 0 1 0 20;
#X obj 376 168 scale 0 1 1 70;
#X obj 259 95 scale 0 1 0.2 1.5;
#X msg 734 782 ../snd/cosima-sounds.wav;
#X connect 1 0 44 0;
#X connect 2 0 0 6;
#X connect 3 0 0 0;
#X connect 4 0 23 0;
#X connect 4 0 22 0;
#X connect 4 0 24 0;
#X connect 4 0 17 0;
#X connect 4 0 21 0;
#X connect 4 0 10 0;
#X connect 4 0 20 0;
#X connect 4 0 19 0;
#X connect 4 0 18 0;
#X connect 4 0 16 0;
#X connect 4 0 15 0;
#X connect 5 0 0 1;
#X connect 6 0 0 2;
#X connect 7 0 0 3;
#X connect 8 0 0 4;
#X connect 9 0 0 5;
#X connect 10 0 9 0;
#X connect 11 0 0 10;
#X connect 12 0 0 7;
#X connect 13 0 0 8;
#X connect 14 0 0 9;
#X connect 15 0 11 0;
#X connect 16 0 14 0;
#X connect 17 0 7 0;
#X connect 18 0 13 0;
#X connect 19 0 12 0;
#X connect 20 0 2 0;
#X connect 21 0 8 0;
#X connect 22 0 5 0;
#X connect 23 0 3 0;
#X connect 24 0 6 0;
#X connect 26 0 36 0;
#X connect 27 0 5 0;
#X connect 28 0 43 0;
#X connect 29 0 37 0;
#X connect 30 0 42 0;
#X connect 31 0 9 0;
#X connect 32 0 38 0;
#X connect 33 0 41 0;
#X connect 34 0 39 0;
#X connect 35 0 40 0;
#X connect 36 0 3 0;
#X connect 37 0 7 0;
#X connect 38 0 2 0;
#X connect 39 0 13 0;
#X connect 40 0 14 0;
#X connect 41 0 12 0;
#X connect 42 0 8 0;
#X connect 43 0 6 0;
#X connect 44 0 0 11;
#X restore 154 830 pd granular;
#X f 28;
#X obj 46 697 jags_master_vol_V2;
#X floatatom 47 669 5 0 0 0 - - - 0;
#X obj 48 610 loadbang;
#X msg 101 648 0;
#X text 791 523 learnable grain pos;
#X obj 450 873 array define paramsbuf 12;
#X obj 154 575 unpack f f f f f f f f f f f f;
#X obj 399 -11 vsl 19 162 0 1 0 0 empty empty empty 0 -9 0 12 #fcfcfc #000000 #000000 0 1;
#X obj 421 -11 vsl 19 162 0 1 0 0 empty empty empty 0 -9 0 12 #fcfcfc #000000 #000000 0 1;
#X obj 443 -11 vsl 19 162 0 1 0 0 empty empty empty 0 -9 0 12 #fcfcfc #000000 #000000 0 1;
#X obj 464 -11 vsl 19 162 0 1 0 0 empty empty empty 0 -9 0 12 #fcfcfc #000000 #000000 0 1;
#X msg 48 645 0.9;
#X connect 0 0 41 0;
#X connect 2 0 43 0;
#X connect 3 0 43 0;
#X connect 4 0 15 0;
#X connect 4 0 137 0;
#X connect 5 0 15 2;
#X connect 5 0 137 2;
#X connect 6 0 15 3;
#X connect 6 0 137 3;
#X connect 7 0 15 4;
#X connect 7 0 137 4;
#X connect 9 0 15 5;
#X connect 9 0 137 5;
#X connect 10 0 15 6;
#X connect 10 0 137 6;
#X connect 11 0 15 7;
#X connect 11 0 137 7;
#X connect 12 0 15 8;
#X connect 12 0 137 8;
#X connect 13 0 15 9;
#X connect 13 0 137 9;
#X connect 15 0 8 0;
#X connect 16 0 18 0;
#X connect 17 0 27 0;
#X connect 19 0 16 0;
#X connect 19 0 17 0;
#X connect 19 0 35 0;
#X connect 20 0 19 0;
#X connect 21 0 18 0;
#X connect 21 0 27 0;
#X connect 22 0 18 0;
#X connect 22 0 27 0;
#X connect 23 0 42 1;
#X connect 24 0 144 0;
#X connect 28 0 41 0;
#X connect 29 0 24 0;
#X connect 30 0 29 0;
#X connect 30 1 38 0;
#X connect 32 0 31 0;
#X connect 35 0 19 1;
#X connect 38 0 39 0;
#X connect 41 0 30 0;
#X connect 42 0 28 0;
#X connect 43 0 42 0;
#X connect 43 1 1 0;
#X connect 45 0 4 0;
#X connect 45 1 52 0;
#X connect 45 2 5 0;
#X connect 45 3 6 0;
#X connect 45 4 7 0;
#X connect 45 5 9 0;
#X connect 45 6 10 0;
#X connect 45 7 11 0;
#X connect 45 8 12 0;
#X connect 45 9 13 0;
#X connect 45 9 49 0;
#X connect 46 0 45 0;
#X connect 47 0 68 0;
#X connect 48 0 76 0;
#X connect 50 0 89 0;
#X connect 51 0 23 0;
#X connect 52 0 75 1;
#X connect 52 0 137 1;
#X connect 52 0 15 1;
#X connect 53 0 120 1;
#X connect 54 0 123 1;
#X connect 55 0 66 0;
#X connect 56 0 54 1;
#X connect 56 0 53 1;
#X connect 56 0 74 1;
#X connect 57 0 58 0;
#X connect 58 0 56 0;
#X connect 59 0 106 0;
#X connect 59 1 61 0;
#X connect 60 0 0 0;
#X connect 61 0 60 0;
#X connect 62 0 51 0;
#X connect 63 0 65 0;
#X connect 64 0 59 0;
#X connect 65 0 64 0;
#X connect 66 0 74 0;
#X connect 67 0 46 0;
#X connect 68 0 67 0;
#X connect 69 0 71 0;
#X connect 70 0 20 0;
#X connect 71 0 70 0;
#X connect 72 0 73 0;
#X connect 73 0 75 0;
#X connect 74 0 56 0;
#X connect 75 0 52 0;
#X connect 76 0 32 0;
#X connect 76 0 77 0;
#X connect 77 0 78 0;
#X connect 80 0 83 1;
#X connect 80 0 85 1;
#X connect 80 0 84 1;
#X connect 80 0 15 10;
#X connect 81 0 82 0;
#X connect 82 0 83 0;
#X connect 83 0 80 0;
#X connect 84 0 92 0;
#X connect 85 0 93 0;
#X connect 86 0 87 0;
#X connect 87 0 80 0;
#X connect 89 0 2 0;
#X connect 90 0 129 0;
#X connect 91 0 92 2;
#X connect 91 0 93 2;
#X connect 92 0 53 0;
#X connect 93 0 54 0;
#X connect 94 0 97 1;
#X connect 94 0 98 0;
#X connect 94 0 15 11;
#X connect 95 0 96 0;
#X connect 96 0 97 0;
#X connect 97 0 94 0;
#X connect 98 0 91 0;
#X connect 99 0 100 0;
#X connect 100 0 94 0;
#X connect 101 0 41 0;
#X connect 102 0 103 0;
#X connect 103 0 105 0;
#X connect 104 0 101 0;
#X connect 105 0 110 0;
#X connect 105 1 104 0;
#X connect 107 0 62 0;
#X connect 108 0 109 0;
#X connect 109 0 51 0;
#X connect 111 0 102 0;
#X connect 112 0 113 0;
#X connect 113 0 109 0;
#X connect 114 0 112 0;
#X connect 116 0 127 0;
#X connect 117 0 118 0;
#X connect 118 0 124 0;
#X connect 119 0 128 0;
#X connect 120 0 14 0;
#X connect 121 0 122 0;
#X connect 122 0 120 0;
#X connect 122 0 123 0;
#X connect 123 0 14 1;
#X connect 124 0 125 0;
#X connect 124 1 125 1;
#X connect 125 0 121 0;
#X connect 127 0 117 0;
#X connect 128 0 118 0;
#X connect 129 0 3 0;
#X connect 131 0 133 0;
#X connect 132 0 135 0;
#X connect 133 0 134 0;
#X connect 134 0 43 0;
#X connect 135 0 136 0;
#X connect 136 0 43 0;
#X connect 138 0 84 0;
#X connect 138 1 85 0;
#X connect 139 0 138 0;
#X connect 140 0 149 0;
#X connect 140 0 141 0;
#X connect 141 0 138 1;
#X connect 144 0 4 0;
#X connect 144 1 52 0;
#X connect 144 2 5 0;
#X connect 144 3 6 0;
#X connect 144 4 7 0;
#X connect 144 5 9 0;
#X connect 144 6 10 0;
#X connect 144 7 11 0;
#X connect 144 8 12 0;
#X connect 144 9 13 0;
#X connect 144 10 80 0;
#X connect 144 11 94 0;
#X connect 145 0 2 0;
#X connect 146 0 3 0;
#X connect 147 0 134 0;
#X connect 148 0 136 0;
#X connect 149 0 139 0;
