#N canvas 174 161 1098 658 12;
#X msg 93 250 disconnect;
#X obj 63 279 netsend -u -b;
#X obj 652 116 o.display 100 42;
#X obj 68 101 o.pack /adc;
#X msg 68 66 0 1 2 3;
#X obj 227 133 o.display 190 28;
#X msg 80 224 connect localhost 2001;
#X obj 653 34 netreceive -u -b 2001;
#N canvas 654 38 373 463 bundle2bytes 0;
#X obj 66 41 inlet;
#X obj 106 391 outlet;
#X obj 66 168 o.pack /b;
#X obj 66 235 o.route /b;
#X obj 66 268 list split 1;
#X obj 106 345 list trim;
#X obj 66 67 route FullPacket;
#X obj 66 127 list trim;
#X obj 66 97 list prepend FullPacket;
#X obj 106 315 list prepend send;
#X obj 66 201 o.downcast;
#X connect 0 0 6 0;
#X connect 2 0 10 0;
#X connect 3 0 4 0;
#X connect 4 1 9 0;
#X connect 5 0 1 0;
#X connect 6 0 8 0;
#X connect 7 0 2 0;
#X connect 8 0 7 0;
#X connect 9 0 5 0;
#X connect 10 0 3 0;
#X restore 55 189 pd bundle2bytes;
#N canvas 0 38 450 300 bytes2bundle 0;
#X obj 52 27 inlet;
#X obj 52 261 outlet;
#X obj 52 65 o.pack /list;
#X obj 52 101 o.expr.codebox 199 36 binhex b#2F626E646C203D2062756E646C65282F b#6C69737429;
#X obj 52 156 o.route /bndl;
#X connect 0 0 2 0;
#X connect 2 0 3 0;
#X connect 3 0 4 0;
#X connect 4 0 1 0;
#X restore 655 66 pd bytes2bundle;
#X obj 328 297 print net;
#X connect 0 0 1 0;
#X connect 3 0 5 0;
#X connect 3 0 8 0;
#X connect 4 0 3 0;
#X connect 6 0 1 0;
#X connect 7 0 9 0;
#X connect 8 0 1 0;
#X connect 9 0 2 0;
