#N canvas 119 82 882 664 12;
#X obj 31 46 oscparse;
#X obj 30 12 netreceive -u -b 57120;
#X obj 81 399 loadbang;
#X obj 31 70 list trim;
#X obj 150 578 print enc-rot;
#X obj 361 578 print key;
#X msg 81 425 pd-controls-init;
#X obj 247 577 print enc-push;
#X obj 74 578 print adc;
#X obj 39 277 s adc;
#X obj 453 48 oscparse;
#X obj 453 72 list trim;
#X obj 440 301 s enc-rot;
#X obj 651 301 s key;
#X obj 537 300 s enc-push;
#X obj 452 14 netreceive -u -b 57121;
#X obj 453 96 route enc-rot enc-push key;
#X obj 31 94 route adc;
#X connect 0 0 3 0;
#X connect 1 0 0 0;
#X connect 2 0 6 0;
#X connect 3 0 17 0;
#X connect 6 0 4 0;
#X connect 6 0 5 0;
#X connect 6 0 7 0;
#X connect 6 0 8 0;
#X connect 10 0 11 0;
#X connect 11 0 16 0;
#X connect 15 0 10 0;
#X connect 16 0 12 0;
#X connect 16 0 4 0;
#X connect 16 1 14 0;
#X connect 16 2 13 0;
#X connect 16 2 5 0;
#X connect 17 0 9 0;
#X connect 17 0 8 0;
