#N canvas 297 140 882 664 12;
#X obj 31 46 oscparse;
#X obj 30 12 netreceive -u -b 57120;
#X obj 368 26 loadbang;
#X obj 31 70 list trim;
#X obj 92 254 print enc-rot;
#X obj 303 254 print key;
#X obj 125 299 s enc-rot;
#X obj 336 299 s key;
#X msg 368 52 pd-controls-init;
#X msg 614 156 /enc-rot/3;
#X obj 31 94 route adc enc-rot enc-push key;
#X obj 222 298 s enc-push;
#X obj 189 253 print enc-push;
#X obj 16 254 print adc;
#X obj 49 299 s adc;
#X connect 0 0 3 0;
#X connect 1 0 0 0;
#X connect 2 0 8 0;
#X connect 3 0 10 0;
#X connect 8 0 4 0;
#X connect 8 0 5 0;
#X connect 8 0 12 0;
#X connect 8 0 13 0;
#X connect 10 0 13 0;
#X connect 10 0 14 0;
#X connect 10 1 4 0;
#X connect 10 1 6 0;
#X connect 10 2 12 0;
#X connect 10 2 11 0;
#X connect 10 3 5 0;
#X connect 10 3 7 0;
