#N canvas 297 140 882 664 12;
#X obj 233 48 oscparse;
#X obj 73 11 netreceive -u -b 57120;
#X obj 72 256 print osc-from-py;
#X obj 471 121 loadbang;
#X obj 233 72 list trim;
#X obj 233 96 route enc-rot key;
#X obj 232 256 print enc-rot;
#X obj 357 256 print key;
#X obj 265 301 s enc-rot;
#X obj 390 301 s key;
#X msg 471 147 pd-controls-init;
#X connect 0 0 4 0;
#X connect 1 0 2 0;
#X connect 1 0 0 0;
#X connect 3 0 10 0;
#X connect 4 0 5 0;
#X connect 5 0 6 0;
#X connect 5 0 8 0;
#X connect 5 1 7 0;
#X connect 5 1 9 0;
#X connect 10 0 2 0;
#X connect 10 0 6 0;
#X connect 10 0 7 0;
